<svg xmlns="http://www.w3.org/2000/svg" width="30" height="30.001" viewBox="0 0 30 30.001"><defs><style>.a{fill:#fcdb38;}</style></defs><g transform="translate(-0.008 -0.013)"><path class="a" d="M-11272.684,144.311l-12.607-12.607a2.391,2.391,0,0,1,0-3.384l12.607-12.607a2.394,2.394,0,0,1,3.384,0l12.606,12.607a2.393,2.393,0,0,1,0,3.384l-12.606,12.607a2.385,2.385,0,0,1-1.692.7A2.385,2.385,0,0,1-11272.684,144.311Zm.663-27.937-12.608,12.609a1.449,1.449,0,0,0-.429,1.029,1.45,1.45,0,0,0,.429,1.029l12.608,12.609a1.448,1.448,0,0,0,1.028.428,1.456,1.456,0,0,0,1.029-.428l12.608-12.609a1.449,1.449,0,0,0,.428-1.029,1.448,1.448,0,0,0-.428-1.029l-12.608-12.609a1.458,1.458,0,0,0-1.029-.427A1.451,1.451,0,0,0-11272.021,116.374Zm-.848,20.67a1.876,1.876,0,0,1,1.876-1.875,1.875,1.875,0,0,1,1.875,1.875,1.875,1.875,0,0,1-1.875,1.875A1.876,1.876,0,0,1-11272.868,137.044Zm.938,0a.938.938,0,0,0,.938.938.938.938,0,0,0,.938-.938.938.938,0,0,0-.937-.938A.938.938,0,0,0-11271.931,137.044Zm.938-2.813a1.933,1.933,0,0,1-1.935-1.855l-.347-8.319a1.937,1.937,0,0,1,.537-1.421,1.934,1.934,0,0,1,1.4-.595h.7a1.94,1.94,0,0,1,1.4.595,1.936,1.936,0,0,1,.535,1.421l-.356,8.319a1.931,1.931,0,0,1-1.93,1.855Zm-1.067-10.945a1,1,0,0,0-.275.732l.347,8.319a1,1,0,0,0,1,1,1,1,0,0,0,1-1l.348-8.319a.992.992,0,0,0-.277-.732.993.993,0,0,0-.719-.306h-.7A1,1,0,0,0-11272.06,123.286Z" transform="translate(11286 -115)"/></g></svg>