<svg xmlns="http://www.w3.org/2000/svg" width="50" height="45" viewBox="0 0 50 45"><defs></defs><path fill="#fcdb38" d="M49.167,38.833h-.833v-17.5H39.974A9.579,9.579,0,1,0,26.667,8.026V3.833H12.5v35H9.167V6.333A.833.833,0,0,0,8.333,5.5H6.548a3.333,3.333,0,1,0,0,1.667H7.5v32.5a.833.833,0,0,0,.833.833h5.859a4.167,4.167,0,1,0,4.948,0H39.192a4.167,4.167,0,1,0,4.948,0h5.026a.833.833,0,0,0,0-1.667ZM3.333,8A1.667,1.667,0,1,1,4.768,5.5h-.6a.833.833,0,1,0,0,1.667h.6A1.661,1.661,0,0,1,3.333,8ZM16.667,46.333a2.5,2.5,0,1,1,2.5-2.5A2.5,2.5,0,0,1,16.667,46.333Zm25,0a2.5,2.5,0,1,1,2.5-2.5A2.5,2.5,0,0,1,41.667,46.333ZM35,23h2.5v3.333H35ZM34.583,5.5a7.917,7.917,0,1,1-7.917,7.917A7.926,7.926,0,0,1,34.583,5.5ZM29.192,21.333H26.667V18.807A9.631,9.631,0,0,0,29.192,21.333ZM20.833,5.5V8.833h-2.5V5.5ZM14.167,38.833V5.5h2.5v5H22.5v-5H25V38.833Zm12.5,0V23h6.667v5h5.833V23h7.5V38.833Z" transform="translate(0 -3)"/></svg>