<svg xmlns="http://www.w3.org/2000/svg" width="199.271" height="199.991" viewBox="0 0 199.271 199.991"><defs><style>.a{fill:#fff;}</style></defs><g transform="translate(0 0)"><path class="a" d="M1.14,198.848a3.917,3.917,0,0,1,0-5.524l39.617-39.761L33.7,146.484,16.773,163.477a3.9,3.9,0,0,1-5.5-5.524L28.2,140.96l-15.42-15.477a17.188,17.188,0,0,1,0-24.216l95.91-96.26a17.035,17.035,0,0,1,24.127,0l61.456,61.681a17.166,17.166,0,0,1,0,24.215l-95.909,96.26a17.037,17.037,0,0,1-24.128,0L46.262,159.086,6.644,198.848a3.882,3.882,0,0,1-5.5,0Zm17.145-78.889L79.741,181.64a9.2,9.2,0,0,0,3.732,2.275V110.96H15.9A9.332,9.332,0,0,0,18.285,119.959ZM91.257,182.92a9.274,9.274,0,0,0,1.6-1.28l95.91-96.26a9.367,9.367,0,0,0,1.283-1.609H173.968l0,0L145.942,111.9a3.9,3.9,0,0,1-5.5-5.524l22.522-22.6H118.348V93.837a17.111,17.111,0,0,1-17.061,17.123H91.257ZM80.945,86.041a3.916,3.916,0,0,1,0,5.524L69.4,103.148h31.882a9.3,9.3,0,0,0,9.277-9.311V14.176L21.915,103.148H36.049l40.69-40.839a3.9,3.9,0,0,1,5.5,5.525L47.057,103.148H58.4L75.442,86.041a3.883,3.883,0,0,1,5.5,0Zm37.4-77.906V75.958h72.7a9.266,9.266,0,0,0-2.278-3.745L127.313,10.532a9.212,9.212,0,0,0-6.549-2.716A9.34,9.34,0,0,0,118.348,8.135ZM26.255,198.846a3.917,3.917,0,0,1,0-5.524l17.676-17.741a3.9,3.9,0,0,1,5.5,5.525l-17.676,17.74a3.882,3.882,0,0,1-5.5,0Zm-25.1-25.221a3.906,3.906,0,0,1,2.751-6.668,3.906,3.906,0,1,1-2.751,6.668ZM86.266,58.273a3.914,3.914,0,0,1,0-5.523,3.881,3.881,0,0,1,5.5,0,3.9,3.9,0,1,1-5.5,5.523Z"/></g></svg>