<svg xmlns="http://www.w3.org/2000/svg" width="44.793" height="50" viewBox="0 0 44.793 50"><defs><style>.a{fill:#6c6a6a;}</style></defs><path class="a" d="M44.82,13.783a1.563,1.563,0,0,0-1.56-1.465H34.99V9.875C34.99,4.982,30.349,1,24.646,1S14.3,4.982,14.3,9.875v2.443H6.033a1.563,1.563,0,0,0-1.56,1.465L2.253,49.34A1.563,1.563,0,0,0,3.813,51H45.48a1.563,1.563,0,0,0,1.56-1.66ZM17.428,9.875c0-3.17,3.239-5.75,7.218-5.75s7.218,2.58,7.218,5.75v2.443H17.428ZM14.3,15.443v3.394a1.563,1.563,0,0,0,3.125,0V15.443H31.865v3.394a1.563,1.563,0,0,0,3.125,0V15.443h6.8L43.145,37.11h-37L7.5,15.443ZM5.475,47.875l.542-8.681H43.275l.542,8.681Z" transform="translate(-2.25 -1)"/></svg>