<svg xmlns="http://www.w3.org/2000/svg" width="60.73" height="62.764" viewBox="0 0 60.73 62.764"><defs><style>.a,.b,.c{fill:none;stroke:#fcdb38;}.a,.c{stroke-linecap:round;stroke-linejoin:round;}.a{stroke-width:1.934px;fill-rule:evenodd;}.b{stroke-width:1.944px;}.c{stroke-width:1.934px;}</style></defs><g transform="translate(-1.638 -0.642)"><path class="a" d="M102.1,712.886v26.769H70L57.116,726.086V678.825H102.1v8.215" transform="translate(-54.511 -677.216)"/><path class="a" d="M57.3,726.086H70v13.477" transform="translate(-54.511 -677.216)"/><line class="b" x2="11.946" transform="translate(6.709 21.154)"/><line class="b" x2="12.039" transform="translate(6.709 27.616)"/><line class="b" x2="17.638" transform="translate(6.709 34.077)"/><line class="b" x2="22.584" transform="translate(6.709 40.538)"/><line class="b" x2="31.73" transform="translate(6.709 8.601)"/><path class="a" d="M115.913,686.486l-8.493,22.523-15.866-2.492-3.08,9.138-5.693-11.631-7.466-3.138Z" transform="translate(-54.511 -677.216)"/><line class="c" y1="8.215" x2="9.146" transform="translate(33.96 30.2)"/><path class="a" d="M91.647,706.517,106.487,693.5,82.781,704.025" transform="translate(-54.511 -677.216)"/></g></svg>