<svg xmlns="http://www.w3.org/2000/svg" width="48" height="48.215" viewBox="0 0 48 48.215"><defs></defs><g transform="translate(-1 -0.955)"><path fill="#fcdb38"  d="M1,8.259V9A45.752,45.752,0,0,0,22.835,47.853L25,49.17l2.165-1.318A45.749,45.749,0,0,0,49,9V8.259L25,.955ZM26.126,46.145,25,46.83l-1.126-.685A43.75,43.75,0,0,1,3.007,9.739L25,3.045,46.993,9.738A43.75,43.75,0,0,1,26.126,46.145Z"/><path fill="#fcdb38"  d="M15.707,25.293l-1.414,1.414L22,34.414,41.707,14.707l-1.414-1.414L22,31.586Z"/></g></svg>