<svg xmlns="http://www.w3.org/2000/svg" width="63.75" height="85" viewBox="0 0 63.75 85"><g transform="translate(-721 243)"><path d="M211.562-1192.083a7.093,7.093,0,0,1,4.018-6.385l-.029-.7h-16.24l-1.935,12.664a1.771,1.771,0,0,1-1.75,1.5,1.7,1.7,0,0,1-.269-.021,1.773,1.773,0,0,1-1.484-2.019l3.348-21.9A23.042,23.042,0,0,1,185-1229.271a1.77,1.77,0,0,1,1.771-1.771H227.5v-37.187A1.771,1.771,0,0,1,229.27-1270a1.77,1.77,0,0,1,1.771,1.771v1.85a19.508,19.508,0,0,1,17.71,19.4,19.509,19.509,0,0,1-17.772,19.406,23.061,23.061,0,0,1-12.286,18.7l.405,9.724a7.092,7.092,0,0,1,6.631,7.07,7.089,7.089,0,0,1-7.083,7.083A7.091,7.091,0,0,1,211.562-1192.083Zm3.541,0a3.546,3.546,0,0,0,3.543,3.542,3.546,3.546,0,0,0,3.541-3.542,3.545,3.545,0,0,0-3.541-3.541,3.541,3.541,0,0,0-.811.094l-.025.006A3.546,3.546,0,0,0,215.1-1192.083Zm.3-10.625-.2-4.69a22.924,22.924,0,0,1-7.186,1.149,22.919,22.919,0,0,1-7.439-1.234l-.73,4.775Zm-7.382-7.083a19.5,19.5,0,0,0,19.4-17.708h-38.8A19.5,19.5,0,0,0,208.021-1209.791Zm23.02-21.348a15.958,15.958,0,0,0,14.167-15.839,15.959,15.959,0,0,0-14.167-15.839Zm-26.562,10.723a1.77,1.77,0,0,1-1.771-1.771,1.77,1.77,0,0,1,1.771-1.771h7.083a1.77,1.77,0,0,1,1.771,1.771,1.77,1.77,0,0,1-1.771,1.771Zm-14.167-14.167a1.771,1.771,0,0,1-1.771-1.771,1.771,1.771,0,0,1,1.771-1.771h31.875a1.771,1.771,0,0,1,1.771,1.771,1.771,1.771,0,0,1-1.771,1.771Z" transform="translate(536 1027)"/></g></svg>