<svg xmlns="http://www.w3.org/2000/svg" width="23.124" height="29" viewBox="0 0 23.124 29"><defs><style>.a{fill-rule:evenodd;}</style></defs><g transform="translate(-5 -2)"><path class="a" d="M17.124,9.329a4.5,4.5,0,1,0-7,0V6.491a3.5,3.5,0,0,1,7,0V9.329ZM19.623,30a7.65,7.65,0,0,0,7.5-7.5h0v-6a1.5,1.5,0,1,0-3,0V17h-1V14.506a1.5,1.5,0,1,0-3,0V16h-1V13.506a1.5,1.5,0,1,0-3,0V17h-1V6.505a1.5,1.5,0,1,0-3,0V17.8c-2.058-2.2-4.768-4.621-5.879-3.5-1.087,1.093,1.714,4.1,5.626,10.687C13.634,27.949,15.865,30,19.623,30Zm8.5-7.5a8.5,8.5,0,0,1-8.5,8.5c-3.113,0-6.4-1.452-8.659-5.572C7.7,19.483,3.528,15.583,5.516,13.6c1.422-1.422,3.654-.058,5.609,1.771h0V6.508a2.5,2.5,0,1,1,5,0V11.5a2.5,2.5,0,0,1,3.846,1.13A2.5,2.5,0,0,1,24.124,14.5v.014a2.5,2.5,0,0,1,4,2V22.5Z"/></g></svg>