<svg xmlns="http://www.w3.org/2000/svg" width="62.945" height="87" viewBox="0 0 62.945 87"><defs><style>.a{fill:none;stroke:#1a1a1a;stroke-linecap:round;stroke-linejoin:round;stroke-miterlimit:10;stroke-width:2px;}.b{fill:#1a1a1a;}</style></defs><g transform="translate(-12 -5)"><path class="a" d="M49.718,85V80.189h9.622V85ZM1.6,85V80.189h9.623V85ZM0,80.189V0H60.945V80.189Z" transform="translate(13 6)"/><line class="a" x2="60.944" transform="translate(13 11)"/><line class="a" x2="59.944" transform="translate(13 66.943)"/><line class="a" x2="60.944" transform="translate(13 82)"/><line class="a" y2="33" transform="translate(43.472 11)"/><path class="a" d="M28,24.5s-2-2.1-2,2.1,2,3.2,2,3.2" transform="translate(8.285 12.22)"/><path class="a" d="M36,24.5s2-2.1,2,2.1-2,3.2-2,3.2" transform="translate(14.658 12.22)"/><circle class="b" cx="1" cy="1" r="1" transform="translate(42.472 71.098)"/><circle class="b" cx="1" cy="1" r="1" transform="translate(42.472 84)"/></g></svg>