<svg xmlns="http://www.w3.org/2000/svg" width="33.79" height="50" viewBox="0 0 33.79 50">
  <path id="manager" d="M-3243.389,160a.611.611,0,0,1-.611-.611v-1.137a16.62,16.62,0,0,1,8.64-14.575.611.611,0,0,1,.83.241.611.611,0,0,1-.242.829,15.4,15.4,0,0,0-8.007,13.5v.525h31.348v-.525a15.481,15.481,0,0,0-7.486-13.208.611.611,0,0,1-.21-.838.611.611,0,0,1,.838-.21,16.6,16.6,0,0,1,8.08,14.254v1.139a.611.611,0,0,1-.611.611Zm16.285-1.825a.616.616,0,0,1-.249-.052,19.333,19.333,0,0,1-7.37-5.469.608.608,0,0,1-.006-.717l1.8-2.518-2.472-1.5a.611.611,0,0,1-.206-.839.611.611,0,0,1,.839-.206l3.035,1.842a.614.614,0,0,1,.281.4.613.613,0,0,1-.1.478l-1.907,2.672a19.156,19.156,0,0,0,6.358,4.623,19.053,19.053,0,0,0,6.358-4.623l-1.9-2.673a.608.608,0,0,1-.1-.477.617.617,0,0,1,.281-.4l3.035-1.841a.611.611,0,0,1,.839.206.61.61,0,0,1,.069.462.61.61,0,0,1-.279.375l-2.472,1.5,1.8,2.518a.609.609,0,0,1-.006.717,19.224,19.224,0,0,1-7.37,5.469.6.6,0,0,1-.246.052Zm-.548-3.857-4.588-9.266a2.648,2.648,0,0,1,.281-2.788l.476-.613a1.417,1.417,0,0,0,.3-.868V136.5a8.612,8.612,0,0,1-4.234-7.405v-5.285a.612.612,0,0,1,.488-.6,8.407,8.407,0,0,0,5.676-5.552.612.612,0,0,1,.57-.4.613.613,0,0,1,.57.408c.08.224,2.071,5.536,9.3,5.536a.629.629,0,0,1,.222.042h1.151a2.726,2.726,0,0,1,2.723,2.724v.954a2.726,2.726,0,0,1-2.73,2.724h-.778a8.6,8.6,0,0,1-3.969,6.715,8.6,8.6,0,0,1-7.765.743v3.684a2.64,2.64,0,0,1-.556,1.618l-.476.613a1.42,1.42,0,0,0-.151,1.5l4.042,8.156,4.041-8.158a1.406,1.406,0,0,0,.089-1.025.611.611,0,0,1,.422-.73.611.611,0,0,1,.749.388,2.621,2.621,0,0,1-.166,1.917l-4.589,9.26a.611.611,0,0,1-.547.34A.611.611,0,0,1-3227.652,154.318Zm-2.334-18.559a7.384,7.384,0,0,0,7.121-.422,7.384,7.384,0,0,0,3.44-6.248V124.4a11.191,11.191,0,0,1-7.674-3.136,10.318,10.318,0,0,1-1.545-1.958,9.6,9.6,0,0,1-5.552,4.959v4.818a7.384,7.384,0,0,0,3.447,6.244.594.594,0,0,1,.175-.029A.61.61,0,0,1-3229.987,135.759Zm11.782-7.344h.759a1.5,1.5,0,0,0,1.5-1.5v-.95a1.5,1.5,0,0,0-1.5-1.5h-.759Zm-9.358,13.526a.611.611,0,0,1-.611-.611v-.746a2.188,2.188,0,0,1,2.186-2.186h.653a2.188,2.188,0,0,1,2.183,2.186v.131h1.116a4.4,4.4,0,0,0,4.393-4.4v-3.743a.612.612,0,0,1,.611-.585.612.612,0,0,1,.611.585v3.743a5.622,5.622,0,0,1-5.616,5.623Zm.611-1.357v.131h2.583v-.131a.966.966,0,0,0-.965-.965h-.653A.966.966,0,0,0-3226.952,140.584Zm-9.138-2.885a3.4,3.4,0,0,1-3.4-3.4V122.382A12.4,12.4,0,0,1-3227.1,110a12.349,12.349,0,0,1,12.372,11.859.611.611,0,0,1-.584.636.611.611,0,0,1-.636-.584,11.165,11.165,0,0,0-11.385-10.559,11.165,11.165,0,0,0-10.928,11.032V134.3a2.179,2.179,0,0,0,2.176,2.176h1.524a.611.611,0,0,1,.61.611.611.611,0,0,1-.61.611Z" transform="translate(3244 -109.999)" fill="#fcdb38"/>
</svg>
