<svg xmlns="http://www.w3.org/2000/svg" width="83.967" height="65.839" viewBox="0 0 83.967 65.839"><defs><style>.a{fill:none;stroke:#fcdb38;stroke-miterlimit:10;}</style></defs><g transform="translate(1550.472 490.554)"><path class="a" d="M9087.423-5067.57l-14.437-11.762,14.438,11.762,19-13.162,13.984-50.988-13.984,50.988.436-.3-.436.3-.1.348.1-.348-19,13.162.416.337-.416-.337-.643.446Zm15.609-55.783-15.6,55.649Zm-30.129,43.645,14.088-50.884-.41-.186-17.141,6.733-15.795,55.516,15.795-55.516-.416.163.416-.163.135-.475-.135.475,17.141-6.733-.33-.148.33.148.377-.148-.377.148.41.186.141-.511-.141.511,16.035,7.239-16.035-7.239-14.088,50.884.145-.084-.145.084-.223.813.223-.812-19.666,11.677Zm63.293-42.781-15.592-9.388-17.572,8.524,17.572-8.524-.41-.246.41.246.338-.163-.338.163,15.592,9.388.209-.712-.209.712.494.3-.494-.3-15.809,53.9Zm-29.582,42.339,13.51,10.565Zm-42.375-11.025h0a4.948,4.948,0,0,1-.5-2.167,4.926,4.926,0,0,1,4.924-4.925,4.924,4.924,0,0,1,4.914,4.925,4.8,4.8,0,0,1-.492,2.136h0l0,.007-.012.024h0l-4.514,8.284Zm33.293-27.18-9.289,33.934Zm-4.641,5.252-6.1,21.477Zm-20.666-9.083-5.844,21.544Zm47.348,11.882h0a.167.167,0,0,0-.012-.022l-.016-.029h0a4.878,4.878,0,0,1-.473-2.11,4.919,4.919,0,0,1,4.918-4.924,4.923,4.923,0,0,1,4.918,4.924,4.828,4.828,0,0,1-.506,2.162h0l-4.512,8.284Z" transform="translate(-10603.454 4641.999)"/></g></svg>