<svg xmlns="http://www.w3.org/2000/svg" width="20.657" height="21" viewBox="0 0 20.657 21">
  <path id="new_setting" d="M-5981.476-1739a.349.349,0,0,1-.345-.292l-.333-1.993a8.358,8.358,0,0,1-1.7-.555l-1.442,1.419a.349.349,0,0,1-.451.034l-1.7-1.234a.35.35,0,0,1-.107-.439l.9-1.808a8.471,8.471,0,0,1-1.059-1.448l-1.992.3a.345.345,0,0,1-.385-.238l-.649-2a.349.349,0,0,1,.171-.418l1.794-.934a7.628,7.628,0,0,1-.055-.895,7.644,7.644,0,0,1,.055-.895l-1.793-.932a.349.349,0,0,1-.171-.419l.648-2a.347.347,0,0,1,.385-.238l1.994.3c.11-.192.23-.381.356-.563a.347.347,0,0,1,.485-.088.351.351,0,0,1,.089.487,7.558,7.558,0,0,0-.436.712.347.347,0,0,1-.361.18l-1.938-.291-.466,1.433,1.748.908a.347.347,0,0,1,.185.357,7.65,7.65,0,0,0-.08,1.046,7.788,7.788,0,0,0,.079,1.046.349.349,0,0,1-.185.358l-1.747.908.466,1.433,1.938-.292a.351.351,0,0,1,.361.181,7.71,7.71,0,0,0,1.236,1.692.35.35,0,0,1,.061.4l-.88,1.76,1.219.886,1.4-1.382a.355.355,0,0,1,.4-.066,7.654,7.654,0,0,0,1.988.648.349.349,0,0,1,.284.286l.323,1.942h1.507l.323-1.94a.352.352,0,0,1,.283-.287,7.6,7.6,0,0,0,1.99-.647.352.352,0,0,1,.4.066l1.4,1.381,1.218-.886-.877-1.76a.349.349,0,0,1,.06-.4,7.731,7.731,0,0,0,1.237-1.692.345.345,0,0,1,.36-.181l1.939.291.466-1.434-1.747-.907a.351.351,0,0,1-.187-.358,7.811,7.811,0,0,0,.08-1.046,7.817,7.817,0,0,0-.08-1.046.348.348,0,0,1,.187-.357l1.747-.909-.466-1.433-1.939.292a.351.351,0,0,1-.36-.181,7.719,7.719,0,0,0-1.237-1.691.352.352,0,0,1-.061-.4l.879-1.76-1.22-.886-1.4,1.382a.349.349,0,0,1-.4.066,7.639,7.639,0,0,0-1.989-.648.35.35,0,0,1-.283-.286l-.323-1.942h-1.507l-.323,1.941a.35.35,0,0,1-.283.287,7.588,7.588,0,0,0-1.989.647.35.35,0,0,1-.4-.065l-1.4-1.381-1.219.886.878,1.759a.35.35,0,0,1-.157.47.349.349,0,0,1-.468-.157l-1.011-2.025a.35.35,0,0,1,.107-.44l1.7-1.235a.35.35,0,0,1,.451.034l1.443,1.419a8.3,8.3,0,0,1,1.7-.555l.333-1.993a.348.348,0,0,1,.344-.293h2.1a.351.351,0,0,1,.345.293l.333,1.994a8.324,8.324,0,0,1,1.7.554l1.442-1.419a.35.35,0,0,1,.451-.034l1.7,1.235a.348.348,0,0,1,.106.44l-.9,1.808a8.387,8.387,0,0,1,1.06,1.448l1.992-.3a.347.347,0,0,1,.385.238l.649,2a.351.351,0,0,1-.172.419l-1.794.933a8.049,8.049,0,0,1,.054.894,7.654,7.654,0,0,1-.056.895l1.794.933a.351.351,0,0,1,.172.419l-.649,2a.344.344,0,0,1-.385.238l-1.992-.3a8.512,8.512,0,0,1-1.059,1.448l.9,1.807a.352.352,0,0,1-.107.44l-1.7,1.234a.349.349,0,0,1-.451-.034l-1.442-1.419a8.225,8.225,0,0,1-1.7.555l-.333,1.993a.347.347,0,0,1-.343.292Zm-4.55-10.5a5.606,5.606,0,0,1,5.6-5.6,5.606,5.606,0,0,1,5.6,5.6,5.556,5.556,0,0,1-1.16,3.415.352.352,0,0,1-.491.064.351.351,0,0,1-.064-.492,4.86,4.86,0,0,0,1.015-2.988,4.906,4.906,0,0,0-4.9-4.9,4.907,4.907,0,0,0-4.9,4.9,4.907,4.907,0,0,0,4.9,4.9,4.928,4.928,0,0,0,1.695-.3.352.352,0,0,1,.449.208.351.351,0,0,1-.208.449,5.624,5.624,0,0,1-1.936.343A5.606,5.606,0,0,1-5986.026-1749.5Zm8.4,4.2a.349.349,0,0,1,.349-.35.35.35,0,0,1,.351.35.35.35,0,0,1-.351.35A.349.349,0,0,1-5977.626-1745.3Zm-5.6-4.2a2.8,2.8,0,0,1,2.8-2.8,2.8,2.8,0,0,1,2.8,2.8,2.8,2.8,0,0,1-2.8,2.8A2.8,2.8,0,0,1-5983.226-1749.5Zm.7,0a2.1,2.1,0,0,0,2.1,2.1,2.1,2.1,0,0,0,2.1-2.1,2.1,2.1,0,0,0-2.1-2.1A2.1,2.1,0,0,0-5982.526-1749.5Z" transform="translate(5990.754 1760)" fill="#fff"/>
</svg>
