<svg xmlns="http://www.w3.org/2000/svg" width="39.391" height="62" viewBox="0 0 39.391 62"><path d="M53.11,9H32.278A9.676,9.676,0,0,0,23,18.988v39c0,5.089,3.647,9.285,8.024,9.776V71h6.565V67.976H47.8V71h6.565V67.764c4.376-.5,8.024-4.7,8.024-9.776v-39A9.676,9.676,0,0,0,53.11,9Zm0,1.512a8.19,8.19,0,0,1,7.819,8.476V33.2H26.647V13.068a8.052,8.052,0,0,1,5.631-2.556ZM25.188,15.087V33.2h-.729V18.988A7.036,7.036,0,0,1,25.188,15.087Zm-.729,19.621h.729V61.889a7.036,7.036,0,0,1-.729-3.9Zm11.671,34.78H32.482V67.976h3.647Zm16.776,0H49.258V67.976h3.647Zm.2-3.024H32.278a8.052,8.052,0,0,1-5.631-2.556v-29.2H60.929v23.28a8.19,8.19,0,0,1-7.819,8.476Zm6.36-49.146H55.094V31.683H59.47ZM58.011,30.171H56.552V18.829h1.459ZM59.47,36.22H55.094v18.9H59.47ZM58.011,53.61H56.552V37.732h1.459Z" transform="translate(-22.998 -9)"/></svg>