<svg xmlns="http://www.w3.org/2000/svg" width="25.748" height="23" viewBox="0 0 25.748 23">
  <g id="settings3" transform="translate(-25.5 -29.84)">
    <path id="Union_8" data-name="Union 8" d="M20.6,8.4v0Zm-8.727,5.25A3.151,3.151,0,1,1,15.025,10.5a3.151,3.151,0,0,1-3.151,3.151v0Zm-8.727,5.4A3.151,3.151,0,1,1,6.3,15.9a3.15,3.15,0,0,1-3.154,3.15h0v0ZM3.147,0V0Zm14.3,5.25A3.151,3.151,0,0,1,20.6,2.1h0v0A3.151,3.151,0,1,1,17.447,5.25ZM11.874,0V0Z" transform="translate(26.5 30.84)" fill="none" stroke="#fff" stroke-linecap="round" stroke-linejoin="round" stroke-width="2"/>
  </g>
</svg>
