<svg xmlns="http://www.w3.org/2000/svg" width="64.648" height="85" viewBox="0 0 64.648 85"><path d="M87.648,14H23V93.014h5.986V99H39.761V93.014H70.887V99H81.662V93.014h5.986Zm-2.394,2.394V29.563H25.394V16.394ZM37.366,96.606H31.38V93.014h5.986Zm41.9,0H73.282V93.014h5.986ZM25.394,90.62V31.958H85.254V90.62Zm29.93-43.793A14.462,14.462,0,1,0,69.786,61.289,14.462,14.462,0,0,0,55.324,46.827Zm0,26.542a12.077,12.077,0,1,0,0-.012ZM69.69,18.789H57.718v8.38H69.69ZM67.3,24.775H60.113V21.183H67.3Zm15.563-5.986H72.085v8.38H82.859Zm-2.394,5.986H74.479V21.183h5.986Zm-1.52,27.835a2.287,2.287,0,0,0-.275,0,25.185,25.185,0,1,0,0,16.988c1.712,0,4.19-1.927,4.19-3.711V56.7a3.951,3.951,0,0,0-3.915-4.094Zm1.52,4.094v.4H76.873v-.4a1.8,1.8,0,1,1,3.592,0Zm-3.592,6.381h3.592v1.2H76.873Zm0-2.394h3.592v1.2H76.873Zm0-1.2V58.3h3.592v1.2Zm-21.549,24.4a22.6,22.6,0,0,1,0-45.194A22.124,22.124,0,0,1,76.263,53.507a4.346,4.346,0,0,0-1.784,3.2v9.182a4.346,4.346,0,0,0,1.784,3.185A22.124,22.124,0,0,1,55.324,83.892ZM78.669,67.574a1.784,1.784,0,0,1-1.8-1.7v-.4h3.592v.4a1.784,1.784,0,0,1-1.8,1.7Z" transform="translate(-23 -14)"/></svg>