<svg width="164" height="9" viewBox="0 0 164 9" fill="none" xmlns="http://www.w3.org/2000/svg">
<path d="M157.227 0C152.125 0 148.148 1.79579 144.299 3.53271C140.449 5.26963 136.844 6.8972 132.153 6.8972C127.462 6.8972 123.844 5.26542 120.01 3.53271C116.177 1.8 112.172 0 107.074 0C101.976 0 97.9915 1.79579 94.1462 3.53271C90.3009 5.26963 86.691 6.8972 82 6.8972C77.309 6.8972 73.6911 5.26542 69.8578 3.53271C66.0244 1.8 62.0275 0 56.9297 0C51.8319 0 47.847 1.79579 43.9977 3.53271C40.1484 5.26963 36.5464 6.8972 31.8554 6.8972C27.1645 6.8972 23.5425 5.26542 19.7132 3.53271C15.8838 1.8 11.883 0 6.78115 0C4.48371 0.00909805 2.19963 0.368907 0 1.06822L0.562436 3.08692C2.5791 2.44262 4.67394 2.11111 6.78115 2.1028C11.4721 2.1028 15.094 3.73878 18.9274 5.46729C22.7607 7.19579 26.7536 9 31.8554 9C36.9572 9 40.9342 7.20421 44.7835 5.46729C48.6328 3.73037 52.2388 2.1028 56.9297 2.1028C61.6207 2.1028 65.2386 3.73878 69.0719 5.46729C72.9053 7.19579 76.9022 9 82 9C87.0978 9 91.0788 7.20421 94.9281 5.46729C98.7774 3.73037 102.383 2.1028 107.074 2.1028C111.765 2.1028 115.383 3.73878 119.217 5.46729C123.05 7.19579 127.047 9 132.145 9C137.242 9 141.227 7.20421 145.077 5.46729C148.926 3.73037 152.528 2.1028 157.219 2.1028C159.326 2.11111 161.421 2.44262 163.438 3.08692L164 1.06822C161.803 0.369131 159.522 0.00931931 157.227 0Z" fill="#10233D"/>
</svg>
