<svg xmlns="http://www.w3.org/2000/svg" width="49.6" height="62" viewBox="0 0 49.6 62"><g transform="translate(-7.2 -1)"><path d="M32,37c-10.3,0-17-6.3-17-16V20H49v1C49,30.7,42.3,37,32,37ZM17,22c.4,7.9,6.2,13,15,13s14.5-5.1,15-13Z"/><rect width="9" height="2" transform="translate(22 5)"/><rect width="4" height="2" transform="translate(33 5)"/><path d="M56.8,63H7.2L29,55.3V40.9C18,39.6,11,32.2,11,22c0-6.2,5.8-19.8,6.1-20.4l.2-.6H46.6l.3.6C47.2,2.2,53,15.8,53,22c0,10.2-7,17.6-18,18.9V55.3Zm-38-2H45.1L33,56.7V39.1l.9-.1C44.5,38,51,31.5,51,22c0-5.1-4.5-16.3-5.7-19H18.7C17.5,5.7,13,16.9,13,22c0,9.5,6.5,16,17.1,17l.9.1V56.7Z"/></g></svg>